<svg width="806" height="529" viewBox="0 0 806 529" fill="none" xmlns="http://www.w3.org/2000/svg">
    <g opacity="0.3">
        <path d="M402.993 0L292.824 63.536L329.916 85.5089L402.993 43.2877L476.071 85.5089L513.163 63.536L402.993 0Z" fill="#2E6DA5"/>
        <path d="M402.993 42.2344L292.705 106.1L402.993 169.978L513.295 106.1L402.993 42.2344Z" fill="#367DBF"/>
        <path d="M292.969 63.4174V106.56L330.351 84.9823L292.969 63.4174Z" fill="#2B2B6F"/>
        <path d="M513.031 63.4174L475.65 84.9823L513.031 106.56V63.4174Z" fill="#5DC2EF"/>
        <path d="M256.496 84.482L146.379 148.163L219.957 191.082L256.641 169.978L293.693 190.819L293.733 105.928L256.496 84.482Z" fill="#2E6DA5"/>
        <path d="M549.491 84.482L512.267 105.928V190.726L549.491 212.173L659.647 148.334L549.491 84.482Z" fill="#367DBF"/>
        <path d="M293.127 105.586L292.771 190.819L366.007 233.132L366.152 275.472L403.494 254.078L403.415 169.135L293.127 105.586Z" fill="#2B2B6F"/>
        <path d="M513.031 105.639L402.572 169.135L402.493 254.078L439.69 275.538L513.242 233L513.031 105.639Z" fill="#5DC2EF"/>
        <path d="M146.88 147.807L146.418 190.819L183.471 212.199L220.51 190.292L146.88 147.807Z" fill="#2B2B6F"/>
        <path d="M659.015 147.807L548.977 211.291L548.898 254.17L586.201 275.472L586.346 233.132L659.516 190.898L659.015 147.807Z" fill="#5DC2EF"/>
        <path d="M110.222 168.925L0 232.79L110.143 296.642L147.341 275.274V233.053L183.919 211.409L110.222 168.925Z" fill="#2E6DA5"/>
        <path d="M256.641 168.911L146.353 232.79L256.641 296.655L366.942 232.79L256.641 168.911Z" fill="#367DBF"/>
        <path d="M695.699 168.911L585.411 232.79L695.699 296.655L806 232.79L695.699 168.911Z" fill="#367DBF"/>
        <path d="M512.504 190.094L512.307 232.526L475.65 253.907L512.768 275.538L549.807 254.157V211.409L512.504 190.094Z" fill="#2B2B6F"/>
        <path d="M0.263412 232.329L0.0658417 359.73L110.551 423.266L110.749 295.865L0.263412 232.329Z" fill="#2B2B6F"/>
        <path d="M146.616 232.329L146.418 359.73L256.904 423.266L257.102 295.865L146.616 232.329Z" fill="#2B2B6F"/>
        <path d="M366.31 232.263L256.18 295.865L256.14 422.989L293.733 401.872L293.693 317.509L366.81 275.353L366.31 232.263Z" fill="#5DC2EF"/>
        <path d="M586.043 232.263L585.542 275.353L658.66 317.509L658.62 401.872L696.199 422.989L696.16 295.865L586.043 232.263Z" fill="#2B2B6F"/>
        <path d="M805.737 232.329L695.251 295.865L695.435 423.266L805.934 359.73L805.737 232.329Z" fill="#5DC2EF"/>
        <path d="M402.941 253.38L292.705 317.245L402.993 381.11L512.86 317.759L512.307 359.73L549.491 381.097L659.647 317.245L549.412 253.38L476.176 295.601L402.941 253.38Z" fill="#367DBF"/>
        <path d="M476.176 253.367L439.058 275.011L476.176 296.655L513.295 275.011L476.176 253.367Z" fill="#212156"/>
        <path d="M147.327 274.748L109.774 295.996L109.893 423.161L183.919 380.847L147.38 359.295L147.327 274.748Z" fill="#5DC2EF"/>
        <path d="M292.969 316.785L292.771 444.186L403.257 507.722L403.454 380.32L292.969 316.785Z" fill="#2B2B6F"/>
        <path d="M513.031 316.785L402.532 380.32L402.73 507.722L513.216 444.186L513.031 316.785Z" fill="#5DC2EF"/>
        <path d="M659.384 316.785L548.898 380.32L549.083 507.722L659.568 444.186L659.384 316.785Z" fill="#5DC2EF"/>
        <path d="M512.307 359.203L512.267 443.751L475.715 465.303L549.754 507.616L549.86 380.452L512.307 359.203Z" fill="#2B2B6F"/>
        <path d="M37.2105 380.07L0.11853 402.043L110.143 465.553L147.341 444.186L147.143 401.24L110.393 422.292L37.2105 380.07Z" fill="#2C679C"/>
        <path d="M183.563 380.07L146.471 402.043L256.496 465.553L293.693 444.186L293.496 401.24L256.746 422.292L183.563 380.07Z" fill="#2E6DA5"/>
        <path d="M768.776 380.07L695.607 422.292L658.844 401.24L658.659 444.186L695.857 465.553L805.868 402.043L768.776 380.07Z" fill="#367DBF"/>
        <path d="M0.263412 401.24L0.0658417 528.641L110.551 592.177L110.749 464.776L0.263412 401.24Z" fill="#2B2B6F"/>
        <path d="M146.616 401.24L146.418 528.641L256.904 592.177L257.102 464.776L146.616 401.24Z" fill="#2B2B6F"/>
        <path d="M805.737 401.24L695.251 464.776L695.435 592.177L805.934 528.641L805.737 401.24Z" fill="#5DC2EF"/>
        <path d="M147.327 443.659L109.774 464.908L109.893 592.072L183.919 549.758L147.38 528.207L147.327 443.659Z" fill="#5DC2EF"/>
        <path d="M293.324 443.409L256.127 464.908L256.377 592.177L366.771 528.76L366.81 485.814L293.324 443.409Z" fill="#5DC2EF"/>
        <path d="M659.12 443.396L622.002 465.04L658.62 486.328V570.784L696.199 591.901L696.212 464.908L659.12 443.396Z" fill="#2B2B6F"/>
        <path d="M476.176 464.513L439.058 486.157L476.176 507.801L513.295 486.157L476.176 464.513Z" fill="#2E6DA5"/>
        <path d="M622.424 464.526L549.254 506.747L512.755 485.63L475.715 507.537L549.412 550.022L659.516 486.499L622.424 464.526Z" fill="#367DBF"/>
        <path d="M366.138 485.696V528.839L403.52 507.274L366.138 485.696Z" fill="#212156"/>
        <path d="M439.848 485.696L402.467 507.261L439.848 528.839V485.696Z" fill="#212156"/>
        <path d="M439.69 485.63L439.19 528.72L512.307 570.876L512.267 655.239L549.847 676.356L549.807 549.232L439.69 485.63Z" fill="#2B2B6F"/>
        <path d="M659.384 485.696L548.898 549.232L549.083 676.633L659.568 613.097L659.384 485.696Z" fill="#5DC2EF"/>
        <path d="M402.993 506.734L292.705 570.612L402.993 634.478L513.295 570.612L402.993 506.734Z" fill="#367DBF"/>
    </g>
</svg>
