<svg width="133" height="116" viewBox="0 0 133 116" fill="none" xmlns="http://www.w3.org/2000/svg">
    <path fill-rule="evenodd" clip-rule="evenodd" d="M56.8425 0V10.2H71.4175V26.2286H83.0775V10.2H96.195V0H56.8425Z" fill="#1C49C3"/>
    <path d="M113.191 78.5238C102.419 98.7723 77.2675 106.452 57.014 95.6775C36.7605 84.9027 29.0744 59.7533 39.8466 39.5048C50.6188 19.2563 75.77 11.5763 96.0235 22.3511C116.277 33.1259 123.963 58.2753 113.191 78.5238Z" fill="#98CDFF"/>
    <path d="M66.526 54.5234C63.5022 60.2072 65.6597 67.2667 71.3449 70.2912C77.0301 73.3157 84.0901 71.1599 87.1139 65.4761C90.1376 59.7923 87.9801 52.7328 82.2949 49.7083C76.6097 46.6838 69.5497 48.8396 66.526 54.5234Z" fill="#1C49C3"/>
    <path d="M5.83008 42.2572H29.1501V48.0858H5.83008V42.2572Z" fill="#1C49C3"/>
    <path d="M0 55.3715H23.32V61.2H0V55.3715Z" fill="#1C49C3"/>
    <path d="M5.83008 68.4858H29.1501V74.3144H5.83008V68.4858Z" fill="#1C49C3"/>
    <path d="M88.6184 31.6157L93.7654 34.3538L82.8154 54.9367L77.6684 52.1985L88.6184 31.6157Z" fill="#1C49C3"/>
</svg>
