<svg width="25" height="25" viewBox="0 0 25 25" fill="none" xmlns="http://www.w3.org/2000/svg">
    <rect width="25" height="25" fill="white" stroke="#E5E5E5" stroke-width="2"/>
    <path d="M19.0547 10.4219C19.0547 10.2266 18.9766 10.0312 18.8359 9.89062L17.7734 8.82812C17.6328 8.6875 17.4375 8.60937 17.2422 8.60937C17.0469 8.60937 16.8516 8.6875 16.7109 8.82812L11.5859 13.9609L9.28906 11.6562C9.14844 11.5156 8.95313 11.4375 8.75781 11.4375C8.5625 11.4375 8.36719 11.5156 8.22656 11.6562L7.16406 12.7187C7.02344 12.8594 6.94531 13.0547 6.94531 13.25C6.94531 13.4453 7.02344 13.6406 7.16406 13.7812L9.99219 16.6094L11.0547 17.6719C11.1953 17.8125 11.3906 17.8906 11.5859 17.8906C11.7813 17.8906 11.9766 17.8125 12.1172 17.6719L13.1797 16.6094L18.8359 10.9531C18.9766 10.8125 19.0547 10.6172 19.0547 10.4219Z" fill="#BCBCBC"/>
</svg>
