<svg width="122" height="81" viewBox="0 0 122 81" fill="none" xmlns="http://www.w3.org/2000/svg">
    <path fill-rule="evenodd" clip-rule="evenodd" d="M64.3889 0.0252686C63.928 0.00842285 63.465 0 63 0C48.6894 0 36.2764 8.02527 30.1216 19.7682C13.407 20.2275 0 33.7562 0 50.3781C0 66.9595 13.342 80.4629 30 80.9844V80.9999H30.9115L31 81L31.0885 80.9999H95.9191L96.0001 81L96.0811 80.9999H100V80.698C108.182 79.45 115.105 74.4335 118.894 67.5H64.3889V0.0252686Z" fill="#98CDFF"/>
    <path d="M68.9074 40.4506H89.9277V62.9999H68.9074V40.4506Z" fill="#1C49C3"/>
    <path d="M68.9074 13.1538H89.9277V35.7032H68.9074V13.1538Z" fill="#1C49C3"/>
    <path d="M94.5988 40.4506H115.619V62.9999H94.5988V40.4506Z" fill="#1C49C3"/>
    <path d="M100.98 6.75H122V29.2994H100.98V6.75Z" fill="#1C49C3"/>
</svg>
