<svg width="89" height="68" viewBox="0 0 89 68" fill="none" xmlns="http://www.w3.org/2000/svg">
    <path d="M45.5 33L62.0931 4.77762M45.5 33L82.7907 35.8322M45.5 33L56.4012 62.1092M45.5 33L5.69189 42.9987M45.5 33L23.5 7" stroke="#1C48C3" stroke-width="4"/>
    <rect x="29" y="22" width="33" height="22" fill="#1C48C3"/>
    <rect x="7" y="6" width="74" height="56" stroke="#1C48C3" stroke-width="4"/>
    <rect x="15" width="15" height="13" fill="#98CDFF"/>
    <rect x="55" width="15" height="13" fill="#98CDFF"/>
    <rect x="74" y="30" width="15" height="13" fill="#98CDFF"/>
    <rect x="50" y="55" width="15" height="13" fill="#98CDFF"/>
    <rect y="37.0266" width="15" height="13" fill="#98CDFF"/>
    <rect x="11" y="4" width="4" height="4" fill="white"/>
    <rect x="30" y="4" width="4" height="4" fill="white"/>
    <rect x="51" y="4" width="4" height="4" fill="white"/>
    <rect x="70" y="4" width="4" height="4" fill="white"/>
    <rect x="79" y="26" width="4" height="4" fill="white"/>
    <rect x="79" y="43" width="4" height="4" fill="white"/>
    <rect x="65" y="60" width="4" height="4" fill="white"/>
    <rect x="46" y="60" width="4" height="4" fill="white"/>
    <rect x="5" y="50" width="4" height="4" fill="white"/>
    <rect x="5" y="33" width="4" height="4" fill="white"/>
</svg>
