<svg width="439" height="61" viewBox="0 0 439 61" fill="none" xmlns="http://www.w3.org/2000/svg">
    <path d="M378.645 5.57436H399.645C400.529 5.577 401.376 5.93006 402 6.55615C402.625 7.18223 402.975 8.03026 402.975 8.91436V8.98436C402.975 9.86753 402.624 10.7145 402 11.339C401.375 11.9635 400.528 12.3144 399.645 12.3144H382.235V24.6544H399.605C400.488 24.6544 401.335 25.0052 401.96 25.6297C402.584 26.2542 402.935 27.1012 402.935 27.9844C402.935 28.8675 402.584 29.7145 401.96 30.339C401.335 30.9635 400.488 31.3144 399.605 31.3144H382.235V48.3144H399.605C400.043 48.3144 400.477 48.4008 400.882 48.5688C401.286 48.7368 401.654 48.9829 401.963 49.2932C402.273 49.6035 402.518 49.9718 402.685 50.3769C402.851 50.7821 402.936 51.2162 402.935 51.6544C402.935 52.5375 402.584 53.3845 401.96 54.009C401.335 54.6335 400.488 54.9844 399.605 54.9844H378.605C378.202 54.9857 377.802 54.9072 377.429 54.7534C377.056 54.5995 376.717 54.3735 376.431 54.0881C376.146 53.8028 375.92 53.4638 375.766 53.0908C375.612 52.7177 375.534 52.3179 375.535 51.9144V8.64436C375.535 8.23781 375.616 7.83531 375.773 7.46021C375.929 7.0851 376.159 6.74488 376.448 6.45927C376.738 6.17367 377.081 5.94837 377.458 5.79647C377.835 5.64456 378.239 5.56906 378.645 5.57436Z" fill="white"/>
    <path d="M414.205 5.57434H435.205C436.089 5.57699 436.936 5.93005 437.56 6.55614C438.185 7.18222 438.535 8.03025 438.535 8.91435V8.98434C438.535 9.86752 438.184 10.7145 437.56 11.339C436.935 11.9635 436.088 12.3143 435.205 12.3143H417.805V24.6543H435.175C436.058 24.6543 436.905 25.0052 437.53 25.6297C438.154 26.2542 438.505 27.1012 438.505 27.9843C438.505 28.8675 438.154 29.7145 437.53 30.339C436.905 30.9635 436.058 31.3143 435.175 31.3143H417.805V48.3143H435.175C435.613 48.3143 436.047 48.4008 436.452 48.5688C436.856 48.7368 437.224 48.9829 437.533 49.2932C437.843 49.6035 438.088 49.9718 438.254 50.3769C438.421 50.7821 438.506 51.2162 438.505 51.6543C438.505 52.5375 438.154 53.3845 437.53 54.009C436.905 54.6335 436.058 54.9843 435.175 54.9843H414.175C413.361 54.9843 412.58 54.6609 412.004 54.0852C411.429 53.5094 411.105 52.7286 411.105 51.9143V8.64434C411.106 8.23903 411.188 7.83795 411.344 7.46412C411.501 7.09028 411.73 6.75103 412.018 6.46583C412.306 6.18062 412.647 5.95506 413.023 5.80208C413.398 5.6491 413.8 5.57171 414.205 5.57434Z" fill="white"/>
    <path d="M131.085 4.65437H131.445C131.865 4.65306 132.281 4.7346 132.669 4.89432C133.057 5.05405 133.41 5.28881 133.707 5.58516C134.005 5.88151 134.24 6.23362 134.401 6.6213C134.562 7.00898 134.645 7.42461 134.645 7.84437V36.9844L146.915 23.9844C147.213 23.668 147.573 23.4161 147.972 23.2441C148.371 23.0721 148.801 22.9837 149.235 22.9844C149.857 22.9842 150.466 23.1658 150.986 23.507C151.506 23.8482 151.915 24.334 152.163 24.9046C152.41 25.4753 152.486 26.1059 152.379 26.7188C152.273 27.3317 151.99 27.9002 151.565 28.3544L142.785 37.7544L152.525 49.7544C152.915 50.2228 153.162 50.793 153.238 51.3975C153.314 52.0021 153.215 52.6157 152.953 53.1659C152.691 53.716 152.277 54.1796 151.76 54.5019C151.243 54.8242 150.644 54.9916 150.035 54.9844H149.895C149.421 54.9855 148.953 54.88 148.526 54.6757C148.098 54.4715 147.722 54.1737 147.425 53.8044L134.645 38.0644V51.7744C134.645 52.1941 134.562 52.6098 134.401 52.9974C134.24 53.3851 134.005 53.7372 133.707 54.0336C133.41 54.3299 133.057 54.5647 132.669 54.7244C132.281 54.8841 131.865 54.9657 131.445 54.9644H131.085C130.239 54.9644 129.428 54.6283 128.829 54.03C128.231 53.4318 127.895 52.6204 127.895 51.7744V7.84437C127.895 6.99833 128.231 6.18694 128.829 5.5887C129.428 4.99046 130.239 4.65437 131.085 4.65437Z" fill="white"/>
    <path d="M164.435 22.9844H164.505C165.389 22.9844 166.237 23.3349 166.863 23.9591C167.489 24.5833 167.842 25.4303 167.845 26.3144V40.9844C167.845 46.531 170.285 49.3077 175.165 49.3144C176.138 49.3584 177.108 49.1805 178.002 48.7941C178.896 48.4078 179.691 47.8231 180.325 47.0844C181.676 45.3479 182.351 43.1806 182.225 40.9844V26.3144C182.225 25.4312 182.576 24.5842 183.2 23.9597C183.825 23.3352 184.672 22.9844 185.555 22.9844C186.439 22.9844 187.287 23.3349 187.913 23.9591C188.539 24.5833 188.892 25.4303 188.895 26.3144V42.0944C188.955 43.9236 188.638 45.7456 187.964 47.4471C187.289 49.1485 186.272 50.693 184.975 51.9844C182.234 54.4628 178.67 55.8351 174.975 55.8351C171.28 55.8351 167.716 54.4628 164.975 51.9844C163.685 50.6444 162.679 49.0568 162.019 47.3175C161.359 45.5782 161.058 43.7231 161.135 41.8644V26.3144C161.138 25.4372 161.485 24.5962 162.103 23.9731C162.72 23.35 163.558 22.9949 164.435 22.9844Z" fill="white"/>
    <path d="M197.205 51.6344V26.3144C197.205 25.8771 197.291 25.4441 197.459 25.04C197.626 24.636 197.871 24.2689 198.18 23.9597C198.49 23.6505 198.857 23.4052 199.261 23.2379C199.665 23.0705 200.098 22.9844 200.535 22.9844C201.419 22.9844 202.267 23.3349 202.893 23.9591C203.519 24.5833 203.872 25.4303 203.875 26.3144V27.9044C205.131 26.1978 206.654 24.7052 208.385 23.4844C209.877 22.5346 211.617 22.0507 213.385 22.0944C215.392 21.9918 217.377 22.5504 219.035 23.6844C220.635 25.0368 221.846 26.79 222.545 28.7644C223.871 26.8026 225.525 25.0841 227.435 23.6844C229.05 22.6093 230.955 22.0544 232.895 22.0944C234.135 22.0871 235.362 22.3406 236.498 22.8385C237.633 23.3364 238.651 24.0675 239.485 24.9844C240.374 25.8694 241.076 26.9237 241.55 28.0848C242.024 29.2459 242.26 30.4903 242.245 31.7444V51.6344C242.248 52.0734 242.164 52.5085 241.997 52.9149C241.831 53.3212 241.586 53.6906 241.277 54.002C240.967 54.3133 240.599 54.5604 240.194 54.729C239.789 54.8976 239.354 54.9844 238.915 54.9844H238.835C238.398 54.9844 237.965 54.8982 237.561 54.7309C237.157 54.5635 236.79 54.3183 236.48 54.009C236.171 53.6998 235.926 53.3327 235.759 52.9287C235.591 52.5247 235.505 52.0917 235.505 51.6544V33.4544C235.505 29.9144 233.755 28.1444 230.255 28.1444C229.253 28.1524 228.267 28.4031 227.382 28.8751C226.497 29.347 225.74 30.0261 225.175 30.8544C223.749 32.7946 223.017 35.1578 223.095 37.5644V51.6344C223.098 52.0734 223.014 52.5085 222.847 52.9149C222.681 53.3212 222.436 53.6906 222.127 54.002C221.817 54.3133 221.449 54.5604 221.044 54.729C220.639 54.8976 220.204 54.9844 219.765 54.9844H219.685C218.802 54.9844 217.955 54.6335 217.33 54.009C216.706 53.3845 216.355 52.5375 216.355 51.6544V34.3444C216.355 30.1577 214.635 28.0644 211.195 28.0644C210.196 28.0666 209.211 28.2987 208.317 28.7426C207.422 29.1865 206.641 29.8304 206.035 30.6244C204.567 32.412 203.799 34.6725 203.875 36.9844V51.6344C203.876 52.0738 203.791 52.5092 203.624 52.9156C203.457 53.322 203.211 53.6914 202.9 54.0026C202.59 54.3138 202.221 54.5607 201.816 54.7292C201.41 54.8977 200.975 54.9844 200.535 54.9844C200.096 54.9844 199.661 54.8976 199.256 54.729C198.851 54.5604 198.483 54.3133 198.173 54.002C197.864 53.6906 197.619 53.3212 197.453 52.9149C197.287 52.5085 197.203 52.0734 197.205 51.6344Z" fill="white"/>
    <path d="M253.745 22.9844H253.815C254.699 22.9844 255.547 23.3349 256.173 23.9591C256.799 24.5833 257.153 25.4303 257.155 26.3144V40.9844C257.155 46.531 259.595 49.3077 264.475 49.3144C265.448 49.3584 266.418 49.1805 267.312 48.7941C268.206 48.4078 269.001 47.8231 269.635 47.0844C270.981 45.3454 271.655 43.18 271.535 40.9844V26.3144C271.535 25.4312 271.886 24.5842 272.511 23.9597C273.135 23.3352 273.982 22.9844 274.865 22.9844C275.749 22.9844 276.597 23.3349 277.223 23.9591C277.849 24.5833 278.203 25.4303 278.205 26.3144V42.0944C278.265 43.9236 277.948 45.7456 277.274 47.4471C276.599 49.1485 275.582 50.693 274.285 51.9844C271.544 54.4628 267.981 55.8351 264.285 55.8351C260.59 55.8351 257.026 54.4628 254.285 51.9844C252.995 50.6444 251.989 49.0568 251.329 47.3175C250.669 45.5782 250.368 43.7231 250.445 41.8644V26.3144C250.445 25.4364 250.792 24.5939 251.41 23.9703C252.028 23.3466 252.867 22.9923 253.745 22.9844Z" fill="white"/>
    <path d="M289.845 4.65437C290.734 4.65167 291.587 5.00006 292.22 5.62372C292.853 6.24737 293.215 7.09581 293.225 7.98437V51.5944C293.228 52.0395 293.142 52.4806 292.973 52.8925C292.805 53.3043 292.556 53.6786 292.242 53.9938C291.927 54.309 291.554 54.5588 291.142 54.7288C290.731 54.8989 290.29 54.9857 289.845 54.9844C288.951 54.9844 288.094 54.6293 287.462 53.9973C286.83 53.3653 286.475 52.5082 286.475 51.6144V7.98437C286.486 7.09754 286.845 6.25061 287.476 5.62724C288.107 5.00387 288.958 4.65431 289.845 4.65437Z" fill="white"/>
    <path d="M305.915 22.9844H306.035C306.918 22.9844 307.765 23.3352 308.39 23.9597C309.014 24.5842 309.365 25.4312 309.365 26.3144V40.9844C309.365 46.531 311.808 49.3077 316.695 49.3144C317.667 49.3591 318.636 49.1815 319.528 48.795C320.421 48.4086 321.213 47.8235 321.845 47.0844C323.196 45.3479 323.871 43.1806 323.745 40.9844V26.3144C323.748 25.4389 324.094 24.5994 324.709 23.9766C325.324 23.3538 326.16 22.9975 327.035 22.9844C327.918 22.9844 328.765 23.3352 329.39 23.9597C330.014 24.5842 330.365 25.4312 330.365 26.3144V42.0944C330.428 43.9222 330.115 45.7436 329.444 47.445C328.773 49.1464 327.759 50.6916 326.465 51.9844C325.146 53.2711 323.58 54.2773 321.861 54.9424C320.142 55.6075 318.307 55.9177 316.465 55.8544C314.622 55.9271 312.784 55.6213 311.064 54.9556C309.344 54.29 307.779 53.2788 306.465 51.9844C305.175 50.6444 304.169 49.0568 303.509 47.3175C302.849 45.5782 302.548 43.7231 302.625 41.8644V26.3144C302.625 25.4381 302.97 24.5971 303.586 23.9737C304.202 23.3504 305.039 22.9949 305.915 22.9844Z" fill="white"/>
    <path d="M338.345 22.9844H361.765C362.123 22.9968 362.471 23.1052 362.773 23.2983C363.075 23.4914 363.32 23.762 363.481 24.0819C363.643 24.4018 363.715 24.7592 363.691 25.1168C363.667 25.4743 363.548 25.8189 363.345 26.1144L346.345 49.1144H362.535C363.309 49.1037 364.055 49.3994 364.612 49.9371C365.168 50.4748 365.489 51.2108 365.505 51.9844C365.505 52.78 365.189 53.5431 364.626 54.1057C364.064 54.6683 363.301 54.9844 362.505 54.9844H338.945C338.586 54.9714 338.237 54.862 337.935 54.6677C337.633 54.4734 337.389 54.2013 337.229 53.8801C337.068 53.5589 336.997 53.2004 337.023 52.8422C337.048 52.4839 337.17 52.1393 337.375 51.8444L354.535 28.8444H338.345C337.962 28.8444 337.582 28.7688 337.228 28.6221C336.873 28.4754 336.551 28.2603 336.28 27.9891C336.009 27.718 335.794 27.3961 335.647 27.0418C335.501 26.6875 335.425 26.3078 335.425 25.9244C335.424 25.5396 335.498 25.1583 335.644 24.8023C335.79 24.4464 336.005 24.1226 336.276 23.8496C336.547 23.5766 336.87 23.3597 337.225 23.2112C337.58 23.0628 337.96 22.9857 338.345 22.9844Z" fill="white"/>
    <path d="M94.5351 27.6344C90.9751 21.6844 84.9151 18.2444 77.2951 17.7744C76.0785 14.1078 73.5258 11.0338 70.1451 9.16437C66.4729 7.18441 62.1951 6.64255 58.1451 7.64437C54.5755 3.7385 49.7826 1.16399 44.5551 0.344366C38.8393 -0.536245 32.9907 0.280888 27.7351 2.69437C17.5351 7.31437 11.8151 16.3044 12.5551 26.1444C8.7633 27.1988 5.44953 29.5254 3.16987 32.7337C0.890208 35.942 -0.216611 39.8367 0.0351366 43.7644C0.475137 51.6344 6.03514 59.9144 15.7251 60.5044H34.2951C35.151 60.5044 35.9721 60.1658 36.5791 59.5625C37.1862 58.9592 37.5299 58.1402 37.5351 57.2844V44.8344L49.4051 59.4244C49.6814 59.7686 50.0315 60.0462 50.4297 60.2366C50.8279 60.4271 51.2638 60.5254 51.7051 60.5244H51.8251C52.3789 60.5103 52.9179 60.3431 53.3825 60.0414C53.8471 59.7397 54.2191 59.3153 54.4573 58.8151C54.6954 58.315 54.7905 57.7587 54.7318 57.2079C54.6732 56.657 54.4632 56.1332 54.1251 55.6944L45.1251 44.5544L53.2751 35.8244C53.6577 35.3969 53.9097 34.8688 54.0013 34.3025C54.0928 33.7362 54.0201 33.1555 53.7917 32.6293C53.5633 32.1031 53.1889 31.6534 52.7127 31.3335C52.2365 31.0136 51.6786 30.8369 51.1051 30.8244C50.7027 30.8272 50.305 30.9111 49.9356 31.0708C49.5663 31.2306 49.2328 31.4631 48.9551 31.7544L37.5351 43.8644V19.5644C37.5351 18.7687 37.2191 18.0057 36.6565 17.443C36.0938 16.8804 35.3308 16.5644 34.5351 16.5644H34.2351C33.4395 16.5644 32.6764 16.8804 32.1138 17.443C31.5512 18.0057 31.2351 18.7687 31.2351 19.5644V54.2344H16.0351C10.0351 53.8244 6.61514 48.5144 6.35514 43.4444C6.03514 38.5944 8.63514 32.9844 16.5751 31.6344C16.9918 31.565 17.3901 31.4123 17.7464 31.1854C18.1026 30.9585 18.4094 30.6621 18.6484 30.3138C18.8874 29.9656 19.0537 29.5727 19.1374 29.1587C19.221 28.7447 19.2202 28.3181 19.1351 27.9044C17.1351 18.1844 23.5851 11.4644 30.3251 8.41437C38.0351 4.98437 48.5151 5.04437 54.6251 13.1544C55.0421 13.701 55.6275 14.0951 56.2908 14.2758C56.9541 14.4566 57.6585 14.4139 58.2951 14.1544C59.7159 13.5975 61.2399 13.353 62.7635 13.4375C64.2872 13.5221 65.7747 13.9337 67.1251 14.6444C68.3677 15.3465 69.4335 16.3232 70.2411 17.5C71.0487 18.6767 71.5768 20.0224 71.7851 21.4344C71.9265 22.1638 72.3212 22.8199 72.8994 23.2865C73.4777 23.7531 74.2023 24.0003 74.9451 23.9844C83.1851 23.7944 87.2151 27.6044 89.1451 30.8244C90.5324 33.3059 91.2608 36.1014 91.2608 38.9444C91.2608 41.7873 90.5324 44.5829 89.1451 47.0644C86.5251 51.6744 81.9651 54.2144 76.3051 54.2144H62.4951C61.6952 54.1967 60.9165 54.4729 60.3065 54.9907C59.6965 55.5086 59.2975 56.2321 59.1851 57.0244C59.1404 57.4624 59.188 57.905 59.3249 58.3235C59.4618 58.7421 59.6849 59.1272 59.9798 59.4542C60.2747 59.7812 60.635 60.0427 61.0372 60.2219C61.4395 60.401 61.8748 60.4938 62.3151 60.4944H76.3151C80.0155 60.5939 83.6732 59.6852 86.8968 57.8655C90.1203 56.0459 92.7883 53.3839 94.6151 50.1644C96.5562 46.7243 97.5695 42.8387 97.5555 38.8888C97.5414 34.9389 96.5006 31.0605 94.5351 27.6344Z" fill="white"/>
</svg>
