<svg width="116" height="89" viewBox="0 0 116 89" fill="none" xmlns="http://www.w3.org/2000/svg">
    <path fill-rule="evenodd" clip-rule="evenodd" d="M35.8324 9.0554L44.7867 11.9231C46.7735 10.7509 48.9356 9.84445 51.224 9.2523L55.5289 0.889029C55.834 0.87053 56.1403 0.856301 56.4477 0.846162C56.8082 0.834422 57.1702 0.828552 57.5335 0.828552C58.2066 0.828552 58.8751 0.84883 59.5381 0.888851L63.8429 9.25213C66.1314 9.84409 68.2934 10.7509 70.2803 11.9231L79.2346 9.0554C80.2364 9.94281 81.1834 10.8907 82.07 11.8934L79.205 20.8557C80.3762 22.8445 81.282 25.0086 81.8735 27.299L90.2293 31.6078C90.2537 32.0127 90.2708 32.4195 90.2804 32.8281C90.2865 33.0894 90.2896 33.3515 90.2896 33.6143C90.2896 34.2881 90.2693 34.957 90.2293 35.6207L81.8735 39.9295C81.282 42.22 80.3762 44.384 79.205 46.3728L82.07 55.3352C81.1834 56.3378 80.2364 57.2857 79.2346 58.1731L70.2803 55.3055C68.2934 56.4776 66.1314 57.3844 63.8429 57.9764L59.5381 66.3397C58.8751 66.3797 58.2066 66.4 57.5335 66.4C56.8604 66.4 56.192 66.3795 55.5289 66.3395L51.224 57.9762C48.9356 57.3841 46.7735 56.4776 44.7867 55.3055L35.8324 58.1731C34.8306 57.2857 33.8835 56.3377 32.9969 55.335L35.8619 46.3724C34.6908 44.3838 33.7851 42.22 33.1936 39.9295L24.8378 35.6207C24.7978 34.957 24.7775 34.2881 24.7775 33.6143C24.7775 32.9405 24.7978 32.2715 24.8378 31.6078L33.1936 27.299C33.7851 25.0086 34.6908 22.8447 35.8619 20.8561L32.9969 11.8936C33.8835 10.8909 34.8306 9.94281 35.8324 9.0554ZM57.5336 45.051C63.8443 45.051 68.9602 39.9306 68.9602 33.6143C68.9602 27.2978 63.8443 22.1773 57.5336 22.1773C51.2229 22.1773 46.1071 27.2978 46.1071 33.6143C46.1071 39.9306 51.2229 45.051 57.5336 45.051Z" fill="#1C48C3"/>
    <path d="M0 32.6207H115.143V88.257H0V32.6207Z" fill="#98CDFF"/>
    <path d="M11.6599 80.3091L11.6599 42.5558L17.4899 42.5558L17.4899 80.3091L11.6599 80.3091Z" fill="#1C49C3"/>
    <path d="M39.453 80.3091L39.453 42.5558L45.283 42.5558L45.283 80.3091L39.453 80.3091Z" fill="#1C49C3"/>
    <path d="M69.2312 80.3091L69.2312 42.5558L75.0612 42.5558L75.0612 80.3091L69.2312 80.3091Z" fill="#1C49C3"/>
    <path d="M97.0243 80.3091L97.0243 42.5558L102.854 42.5558L102.854 80.3091L97.0243 80.3091Z" fill="#1C49C3"/>
</svg>
