<svg width="81" height="98" viewBox="0 0 81 98" fill="none" xmlns="http://www.w3.org/2000/svg">
    <path d="M0 0.742676H80.1625V80.8855H0V0.742676Z" fill="#98CDFF"/>
    <path fill-rule="evenodd" clip-rule="evenodd" d="M66.8781 15.5079V33.8671L36.6881 64.0497L22.4875 64.0497L16.3236 70.5111L12.1047 66.4885L18.3244 59.9685V45.6905L48.5145 15.5079H66.8781ZM28.2768 58.2211L34.2732 58.2211L39.1241 53.3714L33.1278 53.3714L28.2768 58.2211ZM38.9578 47.5428L44.9541 47.5428L51.2292 41.2693L45.2328 41.2693L38.9578 47.5428ZM51.0628 35.4407H57.0592L61.0481 31.4528L61.0481 25.4579L51.0628 35.4407ZM56.9257 21.3365L46.9404 31.3193L46.9404 25.3244L50.9293 21.3365L56.9257 21.3365ZM41.1104 31.153L34.8353 37.4265L34.8353 43.4214L41.1104 37.1479L41.1104 31.153ZM29.0053 49.25L29.0053 43.2551L24.1544 48.1048L24.1544 54.0997L29.0053 49.25Z" fill="#1C49C3"/>
    <path d="M16.0325 92.1713H62.6725V97.9998H16.0325V92.1713Z" fill="#1C49C3"/>
</svg>
