<?xml version="1.0" encoding="utf-8"?>
<!-- Generator: Adobe Illustrator 18.1.1, SVG Export Plug-In . SVG Version: 6.00 Build 0)  -->
<svg version="1.1" id="Layer_1" xmlns="http://www.w3.org/2000/svg" xmlns:xlink="http://www.w3.org/1999/xlink" x="0px" y="0px"
	 width="94px" height="31px" viewBox="0 0 94 31" enable-background="new 0 0 94 31" xml:space="preserve">
<path fill-rule="evenodd" clip-rule="evenodd" fill="#A2A2A6" d="M88.7,4.8h-5.9V0H72.7l-4.8,4.8h-5.3l-2.7,2.7V4.8h-4.8V0H36.9v4.8
	H15L10.2,0H0v21.4l4.8,4.8l8,4.8h6.9v-1.1l2.7,1.1h13l2.3-2.7L38,31h8.5l0.2-2.7l3.1,2.7h7.5l0.5-2.7l2.7,2.7h8.6l2.7-2.7V31h4.8
	l3.7-2.7V31h5.3l8-5.3v-16L88.7,4.8z M12.8,12.8H8v5.3h4.8v5.9H5.9l-3.7-3.7V2.1H8v4.8h4.8V12.8z M36.9,20.3l-3.7,3.7H15V6.9h5.9
	v11.2H23V6.9h5.9v11.2H31V6.9h5.9V20.3z M44.9,24.1H39V6.9h5.9V24.1z M44.9,4.8H39V2.1h5.9V4.8z M57.7,12.8h-4.8v5.3h4.8v5.9h-6.9
	L47,20.3V2.1h5.9v4.8h4.8V12.8z M72.7,12.8h-6.9v5.3h6.9v5.9h-9.1l-3.7-3.7v-9.6l3.7-3.7h9.1V12.8z M91.4,24.1h-5.9V12.8h-4.8v11.2
	h-5.9V2.1h5.9v4.8h6.9l3.7,3.7V24.1z"/>
</svg>
