<svg xmlns="http://www.w3.org/2000/svg"  width="113" height="27" viewBox="0 0 113 27">
	<path fill="#a3a3a7" d="M44,19.5l-1.5,7.2h-3.5l5.9-26H49l5.5,26h-3.6l-1.5-7.2H44
		L44,19.5L44,19.5z M49,16.6l-1.2-6.2c-0.3-1.8-0.7-4.1-1-5.9h-0.2c-0.3,1.9-0.7,4.3-1,5.9l-1.2,6.2H49L49,16.6z"/>
	<path fill="#a3a3a7" d="M68,0v21.9c0,1.4,0.1,3.5,0.2,4.8h-3.1l-0.2-2.3h-0.1
		c-0.6,1.3-2,2.6-3.9,2.6c-3.5,0-5.6-3.8-5.6-9.6c0-6.6,2.8-9.8,5.8-9.8c1.5,0,2.7,0.7,3.4,2.1h0.1V0H68L68,0L68,0z M64.4,15.1
		c0-0.3,0-0.8,0-1.2c-0.2-1.7-1.2-3.2-2.5-3.2c-2.3,0-3,3.2-3,6.6c0,3.9,1,6.6,2.9,6.6c0.8,0,1.9-0.4,2.5-2.7
		c0.1-0.3,0.1-0.8,0.1-1.2V15.1L64.4,15.1z"/>
	<path fill="#a3a3a7" d="M76.7,27c-3.7,0-6.4-3.2-6.4-9.6c0-6.8,3.2-9.7,6.6-9.7
		c3.7,0,6.4,3.3,6.4,9.6C83.2,24.7,79.6,27,76.7,27L76.7,27L76.7,27L76.7,27z M76.8,24.1c2.2,0,2.7-4,2.7-6.8c0-2.8-0.5-6.8-2.8-6.8
		c-2.4,0-2.9,4-2.9,6.8C73.9,20.4,74.4,24.1,76.8,24.1L76.8,24.1L76.8,24.1z"/>
	<path fill="#a3a3a7" d="M85.4,0H89v10.1h0.1c1-1.7,2.3-2.4,3.9-2.4c3.2,0,5.2,3.6,5.2,9.4
		c0,6.7-2.7,10-5.8,10c-1.9,0-2.9-1-3.7-2.7h-0.2l-0.2,2.4h-3.1c0.1-1.3,0.2-3.4,0.2-4.8V0L85.4,0L85.4,0z M89,20.1
		c0,0.4,0,0.8,0.2,1.2c0.6,2.3,1.7,2.7,2.4,2.7c2.2,0,3-2.9,3-6.7c0-3.6-0.8-6.5-3-6.5c-1.2,0-2.2,1.4-2.4,2.8
		c-0.1,0.4-0.1,0.9-0.1,1.3V20.1L89,20.1z"/>
	<path fill="#a3a3a7" d="M103.6,18.1c0,4.8,2.1,6,4.3,6c1.3,0,2.4-0.3,3.2-0.7l0.5,2.6
		c-1.1,0.6-2.8,0.9-4.5,0.9c-4.7,0-7.2-3.5-7.2-9.3c0-6.1,2.8-9.9,6.7-9.9c3.9,0,5.7,3.7,5.7,8.4c0,0.9,0,1.5-0.1,2L103.6,18.1
		L103.6,18.1L103.6,18.1z M109,15.5c0-3.3-1.1-5.1-2.5-5.1c-1.9,0-2.7,2.7-2.9,5.1H109L109,15.5z"/>
	<polygon fill="#a3a3a7" points="18.5,0.8 29.3,0.8 29.3,26.7 18.5,0.8 	"/>
	<polygon fill="#a3a3a7" points="10.8,0.8 0,0.8 0,26.7 10.8,0.8 	"/>
	<polygon fill="#a3a3a7" points="14.7,10.3 21.6,26.7 17,26.7 15,21.5 9.9,21.5 14.7,10.3 
			"/>
	<path fill="#a3a3a7" d="M112.2,7.6c0.5,0,0.8,0.4,0.8,0.8c0,0.5-0.4,0.8-0.8,0.8
		c-0.5,0-0.8-0.4-0.8-0.8C111.3,8,111.7,7.6,112.2,7.6L112.2,7.6L112.2,7.6L112.2,7.6z M112.2,7.7c-0.4,0-0.7,0.3-0.7,0.7
		c0,0.4,0.3,0.7,0.7,0.7c0.4,0,0.7-0.3,0.7-0.7C112.8,8,112.5,7.7,112.2,7.7L112.2,7.7L112.2,7.7L112.2,7.7z M112,8.9h-0.1V8
		c0.1,0,0.2,0,0.3,0c0.1,0,0.2,0,0.3,0.1c0.1,0,0.1,0.1,0.1,0.2c0,0.1-0.1,0.2-0.2,0.2v0c0.1,0,0.1,0.1,0.2,0.2c0,0.1,0,0.2,0.1,0.2
		h-0.2c0,0,0-0.1-0.1-0.2c0-0.1-0.1-0.2-0.2-0.2H112V8.9L112,8.9L112,8.9z M112,8.4h0.1c0.1,0,0.2,0,0.2-0.2c0-0.1-0.1-0.2-0.2-0.2
		c0,0-0.1,0-0.1,0V8.4L112,8.4z"/>
	<path fill="#a3a3a7" d="M30.7,0.8c0.5,0,0.8,0.4,0.8,0.8c0,0.5-0.4,0.8-0.8,0.8
		c-0.5,0-0.8-0.4-0.8-0.8C29.9,1.1,30.3,0.8,30.7,0.8L30.7,0.8L30.7,0.8L30.7,0.8z M30.7,0.9c-0.4,0-0.7,0.3-0.7,0.7
		c0,0.4,0.3,0.7,0.7,0.7c0.4,0,0.7-0.3,0.7-0.7C31.4,1.2,31.1,0.9,30.7,0.9L30.7,0.9L30.7,0.9L30.7,0.9z M30.6,2.1h-0.1V1.2
		c0.1,0,0.2,0,0.3,0c0.1,0,0.2,0,0.3,0.1c0.1,0,0.1,0.1,0.1,0.2c0,0.1-0.1,0.2-0.2,0.2v0C31,1.6,31,1.7,31,1.9c0,0.1,0,0.2,0.1,0.2
		h-0.2c0,0,0-0.1-0.1-0.2c0-0.1-0.1-0.2-0.2-0.2h-0.1V2.1L30.6,2.1L30.6,2.1z M30.6,1.6h0.1c0.1,0,0.2,0,0.2-0.2
		c0-0.1-0.1-0.2-0.2-0.2c0,0-0.1,0-0.1,0V1.6L30.6,1.6z"/>
</svg>
