<?xml version="1.0" encoding="utf-8"?>
<svg version="1.1" id="Layer_1" xmlns="http://www.w3.org/2000/svg" xmlns:xlink="http://www.w3.org/1999/xlink" x="0px" y="0px"
	 viewBox="0 0 240 97.5" enable-background="new 0 0 240 97.5" xml:space="preserve">
<g>
	<path fill="#A3A3A7" d="M74.5,44.5L74.5,44.5c-0.5,4.2-4,7.5-8.4,7.5c-4.6,0-8.4-3.7-8.4-8.4c0-4.6,3.7-8.4,8.4-8.4
		c4.6,0,8.4,3.7,8.4,8.3l0,0.3V44.5z M66.1,24.6c-10.5,0-19,8.5-19,19c0,10.5,8.5,19,19,19c3,0,5.6-1,7.9-3l0.8-0.7l0.1,3.7h10.2
		v-19C85.2,33.2,76.6,24.6,66.1,24.6"/>
	<path fill="#A3A3A7" d="M161.2,44.5L161.2,44.5c-0.5,4.2-4,7.5-8.4,7.5c-4.6,0-8.4-3.7-8.4-8.4c0-4.6,3.7-8.4,8.4-8.4
		s8.4,3.7,8.4,8.3l0,0.3L161.2,44.5z M152.8,24.6c-10.5,0-19,8.5-19,19c0,10.5,8.5,19,19,19c3,0,5.6-1,7.9-3l0.8-0.7l0.1,3.7h10.2
		v-19C171.8,33.2,163.3,24.6,152.8,24.6"/>
	<path fill="#A3A3A7" d="M110,24.6c-10.5,0-19,8.5-19,19v19h10.7v-19c0-4.6,3.7-8.4,8.4-8.4c4.6,0,8.4,3.7,8.4,8.4v19H129v-19
		C129,33.2,120.5,24.6,110,24.6"/>
	<path fill="#A3A3A7" d="M177.6,43.7v19h10.7v-19c0-4.4,3.5-8.1,7.8-8.3V24.7C185.9,24.9,177.6,33.4,177.6,43.7"/>
	<path fill="#A3A3A7" d="M27.8,52c-4.6,0-8.4-3.7-8.4-8.4c0-4.6,3.7-8.4,8.4-8.4c3.1,0,5.8,1.7,7.2,4.2l9.2-5.3
		c-3.3-5.7-9.4-9.5-16.5-9.5c-8.8,0-16.3,6.1-18.4,14.2l-8.3,4.8l8.3,4.8c2.1,8.2,9.6,14.2,18.4,14.2c7,0,13.2-3.8,16.5-9.5L35,47.9
		C33.6,50.4,30.9,52,27.8,52"/>
	<path fill="#A3A3A7" d="M228.4,33.2v10.5c0,4.6-3.7,8.4-8.4,8.4c-4.6,0-8.4-3.7-8.4-8.4V33.2c0-2.9-5.3-7.6-10.7-8.2v18.8
		c0,10.5,8.5,19,19,19c3,0,5.8-0.7,8.4-1.9v2.5c0,4.4-3.5,8.1-7.8,8.3v10.7c10.3-0.3,18.5-8.7,18.5-19V24.9
		C233.7,25.6,228.4,30.2,228.4,33.2"/>
</g>
</svg>
