<?xml version="1.0" encoding="utf-8"?>
<!-- Generator: Adobe Illustrator 18.1.1, SVG Export Plug-In . SVG Version: 6.00 Build 0)  -->
<svg version="1.1" id="Layer_1" xmlns="http://www.w3.org/2000/svg" xmlns:xlink="http://www.w3.org/1999/xlink" x="0px" y="0px"
	 width="109px" height="31px" viewBox="0 0 109 31" enable-background="new 0 0 109 31" xml:space="preserve">
<g>
	<g>
		<path fill="#A2A2A6" d="M0,6.3h4.1v14.8h7.3v3.5H0V6.3z"/>
		<path fill="#A2A2A6" d="M17.1,7.6c0,1.1-0.8,2.1-2.2,2.1c-1.3,0-2.1-0.9-2.1-2.1c0-1.2,0.9-2.1,2.2-2.1
			C16.3,5.5,17.1,6.4,17.1,7.6z M12.8,24.5V11.3H17v13.3H12.8z"/>
		<path fill="#A2A2A6" d="M19.4,15.5c0-1.7-0.1-3-0.1-4.2h3.6l0.2,1.8h0.1c0.5-0.9,1.9-2.1,4.1-2.1c2.7,0,4.7,1.8,4.7,5.7v7.8h-4.1
			v-7.3c0-1.7-0.6-2.9-2.1-2.9c-1.1,0-1.8,0.8-2.1,1.5c-0.1,0.3-0.1,0.7-0.1,1v7.6h-4.1V15.5z"/>
		<path fill="#A2A2A6" d="M38.6,16.9L38.6,16.9c0.4-0.6,0.7-1.1,1-1.6l2.7-4h5l-4.7,5.4l5.4,7.9h-5.1l-3.2-5.5l-1,1.3v4.1h-4.1V5.3
			h4.1V16.9z"/>
		<path fill="#A2A2A6" d="M51.1,19.2c0.1,1.7,1.8,2.5,3.7,2.5c1.4,0,2.5-0.2,3.7-0.6l0.5,2.8c-1.4,0.6-3,0.8-4.8,0.8
			c-4.5,0-7.1-2.6-7.1-6.8c0-3.4,2.1-7.1,6.7-7.1c4.3,0,5.9,3.3,5.9,6.6c0,0.7-0.1,1.3-0.1,1.6H51.1z M56,16.4c0-1-0.4-2.7-2.3-2.7
			c-1.7,0-2.4,1.6-2.5,2.7H56z"/>
		<path fill="#A2A2A6" d="M74.3,5.3v15.3c0,1.5,0.1,3.1,0.1,4h-3.7l-0.2-1.9h-0.1c-0.8,1.5-2.4,2.2-4.1,2.2c-3.1,0-5.7-2.7-5.7-6.8
			c0-4.5,2.8-7.1,5.9-7.1c1.7,0,2.9,0.6,3.5,1.5h0.1V5.3H74.3z M70.2,16.9c0-0.2,0-0.5-0.1-0.8c-0.2-1.1-1.1-2-2.4-2
			c-1.9,0-2.8,1.7-2.8,3.8c0,2.3,1.1,3.7,2.8,3.7c1.2,0,2.2-0.8,2.4-2c0.1-0.3,0.1-0.6,0.1-0.9V16.9z"/>
	</g>
	<path fill="#A2A2A6" d="M105.9,0H81.5c-1.7,0-3.1,1.4-3.1,3.1v24.8c0,1.7,1.4,3.1,3.1,3.1h24.5c1.7,0,3.1-1.4,3.1-3.1V3.1
		C109,1.4,107.6,0,105.9,0z M88.2,24.5h-4.1V11.3h4.1V24.5z M86.1,9.6c-1.3,0-2.1-0.9-2.1-2.1c0-1.2,0.9-2.1,2.2-2.1
		c1.3,0,2.1,0.9,2.2,2.1C88.3,8.7,87.5,9.6,86.1,9.6z M103.2,24.5h-4.1v-7.3c0-1.7-0.6-2.9-2.1-2.9c-1.1,0-1.8,0.8-2.1,1.5
		c-0.1,0.3-0.1,0.7-0.1,1v7.6h-4.1v-9c0-1.7-0.1-3-0.1-4.2h3.6l0.2,1.8h0.1c0.5-0.9,1.9-2.1,4.1-2.1c2.7,0,4.7,1.8,4.7,5.7V24.5z"/>
</g>
</svg>
